<svg class="main-svg" xmlns="http://www.w3.org/2000/svg" xmlns:xlink="http://www.w3.org/1999/xlink" width="600" height="500" style="" viewBox="0 0 600 500"><rect x="0" y="0" width="600" height="500" style="fill: rgb(255, 255, 255); fill-opacity: 1;"/><defs id="defs-a069cd"><g class="clips"><clipPath id="clipa069cdxyplot" class="plotclip"><rect width="306.7648" height="361"/></clipPath><clipPath id="clipa069cdx2y2plot" class="plotclip"><rect width="172.5552" height="361"/></clipPath><clipPath class="axesclip" id="clipa069cdx"><rect x="73" y="0" width="306.7648" height="500"/></clipPath><clipPath class="axesclip" id="clipa069cdy"><rect x="0" y="97" width="600" height="361"/></clipPath><clipPath class="axesclip" id="clipa069cdxy"><rect x="73" y="97" width="306.7648" height="361"/></clipPath><clipPath class="axesclip" id="clipa069cdy2"><rect x="0" y="97" width="600" height="361"/></clipPath><clipPath class="axesclip" id="clipa069cdxy2"><rect x="73" y="97" width="306.7648" height="361"/></clipPath><clipPath class="axesclip" id="clipa069cdx2"><rect x="421.4448" y="0" width="172.5552" height="500"/></clipPath><clipPath class="axesclip" id="clipa069cdx2y"><rect x="421.4448" y="97" width="172.5552" height="361"/></clipPath><clipPath class="axesclip" id="clipa069cdx2y2"><rect x="421.4448" y="97" width="172.5552" height="361"/></clipPath></g><g class="gradients"/><g class="patterns"/></defs><g class="bglayer"/><g class="layer-below"><g class="imagelayer"/><g class="shapelayer"/></g><g class="cartesianlayer"><g class="subplot xy"><g class="layer-subplot"><g class="shapelayer"/><g class="imagelayer"/></g><g class="minor-gridlayer"><g class="x"/><g class="y"/></g><g class="gridlayer"><g class="x"/><g class="y"/></g><g class="zerolinelayer"/><g class="layer-between"><g class="shapelayer"/><g class="imagelayer"/></g><path class="xlines-below"/><path class="ylines-below"/><g class="overlines-below"/><g class="xaxislayer-below"/><g class="yaxislayer-below"/><g class="overaxes-below"/><g class="overplot"><g class="xy" transform="translate(73,97)" clip-path="url(#clipa069cdxyplot)"><g class="barlayer mlayer"><g class="trace bars" shape-rendering="crispEdges" style="opacity: 1;"><g class="points"><g class="point"><path d="M61.35,361V257.11H127.43V361Z" style="vector-effect: none; opacity: 1; stroke-width: 0.5px; fill: rgb(183, 211, 198); fill-opacity: 1; stroke: rgb(229, 236, 246); stroke-opacity: 1;"/></g></g></g><g class="trace bars" shape-rendering="crispEdges" style="opacity: 1;"><g class="points"><g class="point"><path d="M61.35,257.11V190.25H127.43V257.11Z" style="vector-effect: none; opacity: 1; stroke-width: 0.5px; fill: rgb(107, 174, 214); fill-opacity: 1; stroke: rgb(229, 236, 246); stroke-opacity: 1;"/></g></g></g><g class="trace bars" shape-rendering="crispEdges" style="opacity: 1;"><g class="points"><g class="point"><path d="M155.74,361V358.09H221.81V361Z" style="vector-effect: none; opacity: 1; stroke-width: 0.5px; fill: rgb(183, 211, 198); fill-opacity: 1; stroke: rgb(229, 236, 246); stroke-opacity: 1;"/></g></g></g><g class="trace bars" shape-rendering="crispEdges" style="opacity: 1;"><g class="points"><g class="point"><path d="M155.74,358.09V355.55H221.81V358.09Z" style="vector-effect: none; opacity: 1; stroke-width: 0.5px; fill: rgb(201, 163, 163); fill-opacity: 1; stroke: rgb(229, 236, 246); stroke-opacity: 1;"/></g></g></g><g class="trace bars" shape-rendering="crispEdges" style="opacity: 1;"><g class="points"><g class="point"><path d="M155.74,355.55V354.99H221.81V355.55Z" style="vector-effect: none; opacity: 1; stroke-width: 0.5px; fill: rgb(107, 174, 214); fill-opacity: 1; stroke: rgb(229, 236, 246); stroke-opacity: 1;"/></g></g></g><g class="trace bars" shape-rendering="crispEdges" style="opacity: 1;"><g class="points"><g class="point"><path d="M0,0Z" style="vector-effect: none; opacity: 1; stroke-width: 0px; fill: rgb(227, 139, 72); fill-opacity: 1; stroke: rgb(229, 236, 246); stroke-opacity: 1;"/></g></g></g><g class="trace bars" shape-rendering="crispEdges" style="opacity: 1;"><g class="points"><g class="point"><path d="M0,0Z" style="vector-effect: none; opacity: 1; stroke-width: 0px; fill: rgb(107, 174, 214); fill-opacity: 1; stroke: rgb(229, 236, 246); stroke-opacity: 1;"/></g></g></g><g class="trace bars" shape-rendering="crispEdges" style="opacity: 1;"><g class="points"><g class="point"><path d="M0,0Z" style="vector-effect: none; opacity: 1; stroke-width: 0px; fill: rgb(201, 163, 163); fill-opacity: 1; stroke: rgb(229, 236, 246); stroke-opacity: 1;"/></g></g></g><g class="trace bars" shape-rendering="crispEdges" style="opacity: 1;"><g class="points"><g class="point"><path d="M0,0Z" style="vector-effect: none; opacity: 1; stroke-width: 0px; fill: rgb(183, 211, 198); fill-opacity: 1; stroke: rgb(229, 236, 246); stroke-opacity: 1;"/></g></g></g></g><g class="scatterlayer mlayer"><g class="trace scatter trace3455e5" style="stroke-miterlimit: 2; opacity: 1;"><g class="fills"><g><path class="js-fill" d="M61.35,190.25L127.43,190.25L127.43,50.06L126.72,20.24L126.59,19.43L124.99,14.6L124.72,14.15L122.22,11.83L121.76,11.6L117.77,10.69L116.73,10.61L106.28,10.51L82.5,10.51L68.08,11.2L67.53,11.39L64.66,13.36L64.35,13.74L62.68,17.31L62.51,17.97L61.63,24.24L61.56,25.51L61.36,36.5L61.35,50.06L61.35,190.25Z" style="fill: rgb(227, 139, 72); fill-opacity: 1; stroke-width: 0;"/></g></g><g class="errorbars"/><g class="lines"><path class="js-line" d="M61.35,190.25L127.43,190.25L127.43,50.06L126.72,20.24L126.59,19.43L124.99,14.6L124.72,14.15L122.22,11.83L121.76,11.6L117.77,10.69L116.73,10.61L106.28,10.51L82.5,10.51L68.08,11.2L67.53,11.39L64.66,13.36L64.35,13.74L62.68,17.31L62.51,17.97L61.63,24.24L61.56,25.51L61.36,36.5L61.35,50.06L61.35,190.25" style="vector-effect: none; fill: none; stroke: rgb(255, 151, 255); stroke-opacity: 1; stroke-width: 0px; opacity: 1;"/></g><g class="points"/><g class="text"/></g><g class="trace scatter trace965808" style="stroke-miterlimit: 2; opacity: 1;"><g class="fills"><g><path class="js-fill" d="M155.74,354.99L221.81,354.99L221.81,345.48L221.11,343.45L220.97,343.4L217.45,342.92L217.05,342.9L200.67,342.79L176.89,342.79L156.32,343.51L156.21,343.58L155.75,344.56L155.74,345.48L155.74,354.99Z" style="fill: rgb(227, 139, 72); fill-opacity: 1; stroke-width: 0;"/></g></g><g class="errorbars"/><g class="lines"><path class="js-line" d="M155.74,354.99L221.81,354.99L221.81,345.48L221.11,343.45L220.97,343.4L217.45,342.92L217.05,342.9L200.67,342.79L176.89,342.79L156.32,343.51L156.21,343.58L155.75,344.56L155.74,345.48L155.74,354.99" style="vector-effect: none; fill: none; stroke: rgb(254, 203, 82); stroke-opacity: 1; stroke-width: 0px; opacity: 1;"/></g><g class="points"/><g class="text"/></g></g></g></g><g class="zerolinelayer-above"/><path class="xlines-above crisp" d="M72,458.5H379.7648" style="fill: none; stroke-width: 1px; stroke: rgb(0, 0, 0); stroke-opacity: 1;"/><path class="ylines-above crisp" d="M72.5,97V458" style="fill: none; stroke-width: 1px; stroke: rgb(0, 0, 0); stroke-opacity: 1;"/><g class="overlines-above"/><g class="xaxislayer-above"><path class="xtick ticks crisp" d="M0,459v5" transform="translate(167.39,0)" style="stroke: rgb(0, 0, 0); stroke-opacity: 1; stroke-width: 1px;"/><path class="xtick ticks crisp" d="M0,459v5" transform="translate(261.78,0)" style="stroke: rgb(0, 0, 0); stroke-opacity: 1; stroke-width: 1px;"/><g class="xtick"><text text-anchor="middle" x="0" y="486.8" transform="translate(167.39,0)" style="font-family: 'Times New Roman', Times, serif; font-size: 19px; fill: rgb(0, 0, 0); fill-opacity: 1; white-space: pre;">Humans</text></g><g class="xtick"><text text-anchor="middle" x="0" y="486.8" style="font-family: 'Times New Roman', Times, serif; font-size: 19px; fill: rgb(0, 0, 0); fill-opacity: 1; white-space: pre;" transform="translate(261.78,0)">AgentSLR</text></g></g><g class="yaxislayer-above"><path class="ytick ticks crisp" d="M72,0h-5" transform="translate(0,458)" style="stroke: rgb(0, 0, 0); stroke-opacity: 1; stroke-width: 1px;"/><path class="ytick ticks crisp" d="M72,0h-5" transform="translate(0,412.5)" style="stroke: rgb(0, 0, 0); stroke-opacity: 1; stroke-width: 1px;"/><path class="ytick ticks crisp" d="M72,0h-5" transform="translate(0,366.99)" style="stroke: rgb(0, 0, 0); stroke-opacity: 1; stroke-width: 1px;"/><path class="ytick ticks crisp" d="M72,0h-5" transform="translate(0,321.49)" style="stroke: rgb(0, 0, 0); stroke-opacity: 1; stroke-width: 1px;"/><path class="ytick ticks crisp" d="M72,0h-5" transform="translate(0,275.98)" style="stroke: rgb(0, 0, 0); stroke-opacity: 1; stroke-width: 1px;"/><path class="ytick ticks crisp" d="M72,0h-5" transform="translate(0,230.48)" style="stroke: rgb(0, 0, 0); stroke-opacity: 1; stroke-width: 1px;"/><path class="ytick ticks crisp" d="M72,0h-5" transform="translate(0,184.98000000000002)" style="stroke: rgb(0, 0, 0); stroke-opacity: 1; stroke-width: 1px;"/><path class="ytick ticks crisp" d="M72,0h-5" transform="translate(0,139.47)" style="stroke: rgb(0, 0, 0); stroke-opacity: 1; stroke-width: 1px;"/><g class="ytick"><text text-anchor="end" x="63.2" y="6.6499999999999995" transform="translate(0,458)" style="font-family: 'Times New Roman', Times, serif; font-size: 19px; fill: rgb(0, 0, 0); fill-opacity: 1; white-space: pre;">0</text></g><g class="ytick"><text text-anchor="end" x="63.2" y="6.6499999999999995" style="font-family: 'Times New Roman', Times, serif; font-size: 19px; fill: rgb(0, 0, 0); fill-opacity: 1; white-space: pre;" transform="translate(0,412.5)">50</text></g><g class="ytick"><text text-anchor="end" x="63.2" y="6.6499999999999995" style="font-family: 'Times New Roman', Times, serif; font-size: 19px; fill: rgb(0, 0, 0); fill-opacity: 1; white-space: pre;" transform="translate(0,366.99)">100</text></g><g class="ytick"><text text-anchor="end" x="63.2" y="6.6499999999999995" style="font-family: 'Times New Roman', Times, serif; font-size: 19px; fill: rgb(0, 0, 0); fill-opacity: 1; white-space: pre;" transform="translate(0,321.49)">150</text></g><g class="ytick"><text text-anchor="end" x="63.2" y="6.6499999999999995" style="font-family: 'Times New Roman', Times, serif; font-size: 19px; fill: rgb(0, 0, 0); fill-opacity: 1; white-space: pre;" transform="translate(0,275.98)">200</text></g><g class="ytick"><text text-anchor="end" x="63.2" y="6.6499999999999995" style="font-family: 'Times New Roman', Times, serif; font-size: 19px; fill: rgb(0, 0, 0); fill-opacity: 1; white-space: pre;" transform="translate(0,230.48)">250</text></g><g class="ytick"><text text-anchor="end" x="63.2" y="6.6499999999999995" style="font-family: 'Times New Roman', Times, serif; font-size: 19px; fill: rgb(0, 0, 0); fill-opacity: 1; white-space: pre;" transform="translate(0,184.98000000000002)">300</text></g><g class="ytick"><text text-anchor="end" x="63.2" y="6.6499999999999995" style="font-family: 'Times New Roman', Times, serif; font-size: 19px; fill: rgb(0, 0, 0); fill-opacity: 1; white-space: pre;" transform="translate(0,139.47)">350</text></g></g><g class="overaxes-above"/></g><g class="subplot x2y2"><g class="layer-subplot"><g class="shapelayer"/><g class="imagelayer"/></g><g class="minor-gridlayer"><g class="x2"/><g class="y2"/></g><g class="gridlayer"><g class="x2"/><g class="y2"/></g><g class="zerolinelayer"/><g class="layer-between"><g class="shapelayer"/><g class="imagelayer"/></g><path class="xlines-below"/><path class="ylines-below"/><g class="overlines-below"/><g class="xaxislayer-below"/><g class="yaxislayer-below"/><g class="overaxes-below"/><g class="overplot"><g class="x2y2" transform="translate(421.4448,97)" clip-path="url(#clipa069cdx2y2plot)"><g class="barlayer mlayer"><g class="trace bars" shape-rendering="crispEdges" style="opacity: 1;"><g class="points"><g class="point"><path d="M56.08,361V245.56H116.47V361Z" style="vector-effect: none; opacity: 1; stroke-width: 0.5px; fill: rgb(183, 211, 198); fill-opacity: 1; stroke: rgb(229, 236, 246); stroke-opacity: 1;"/></g></g></g><g class="trace bars" shape-rendering="crispEdges" style="opacity: 1;"><g class="points"><g class="point"><path d="M56.08,245.56V144.83H116.47V245.56Z" style="vector-effect: none; opacity: 1; stroke-width: 0.5px; fill: rgb(201, 163, 163); fill-opacity: 1; stroke: rgb(229, 236, 246); stroke-opacity: 1;"/></g></g></g><g class="trace bars" shape-rendering="crispEdges" style="opacity: 1;"><g class="points"><g class="point"><path d="M56.08,144.83V122.41H116.47V144.83Z" style="vector-effect: none; opacity: 1; stroke-width: 0.5px; fill: rgb(107, 174, 214); fill-opacity: 1; stroke: rgb(229, 236, 246); stroke-opacity: 1;"/></g></g></g></g><g class="scatterlayer mlayer"><g class="trace scatter trace504bd5" style="stroke-miterlimit: 2; opacity: 1;"><g class="fills"><g><path class="js-fill" d="M56.08,122.41L116.47,122.41L116.47,-254.78L108.45,-360.45L107.65,-360.71L62.79,-359.75L62.23,-359.31L57.13,-341.12L56.99,-339.22L56.08,-254.78L56.08,-254.78L56.08,122.41Z" style="fill: rgb(227, 139, 72); fill-opacity: 1; stroke-width: 0;"/></g></g><g class="errorbars"/><g class="lines"><path class="js-line" d="M56.08,122.41L116.47,122.41L116.47,-254.78L108.45,-360.45L107.65,-360.71L62.79,-359.75L62.23,-359.31L57.13,-341.12L56.99,-339.22L56.08,-254.78L56.08,-254.78L56.08,122.41" style="vector-effect: none; fill: none; stroke: rgb(99, 110, 250); stroke-opacity: 1; stroke-width: 0px; opacity: 1;"/></g><g class="points"/><g class="text"/></g></g></g></g><g class="zerolinelayer-above"/><path class="xlines-above crisp" d="M420.4448,458.5H594" style="fill: none; stroke-width: 1px; stroke: rgb(0, 0, 0); stroke-opacity: 1;"/><path class="ylines-above crisp" d="M420.9448,97V458" style="fill: none; stroke-width: 1px; stroke: rgb(0, 0, 0); stroke-opacity: 1;"/><g class="overlines-above"/><g class="xaxislayer-above"><path class="x2tick ticks crisp" d="M0,459v5" transform="translate(507.72479999999996,0)" style="stroke: rgb(0, 0, 0); stroke-opacity: 1; stroke-width: 1px;"/><g class="x2tick"><text text-anchor="middle" x="0" y="486.8" transform="translate(507.72479999999996,0)" style="font-family: 'Times New Roman', Times, serif; font-size: 19px; fill: rgb(0, 0, 0); fill-opacity: 1; white-space: pre;">AgentSLR</text></g></g><g class="yaxislayer-above"><path class="y2tick ticks crisp" d="M420.4448,0h-5" transform="translate(0,458)" style="stroke: rgb(0, 0, 0); stroke-opacity: 1; stroke-width: 1px;"/><path class="y2tick ticks crisp" d="M420.4448,0h-5" transform="translate(0,385.8)" style="stroke: rgb(0, 0, 0); stroke-opacity: 1; stroke-width: 1px;"/><path class="y2tick ticks crisp" d="M420.4448,0h-5" transform="translate(0,313.6)" style="stroke: rgb(0, 0, 0); stroke-opacity: 1; stroke-width: 1px;"/><path class="y2tick ticks crisp" d="M420.4448,0h-5" transform="translate(0,241.4)" style="stroke: rgb(0, 0, 0); stroke-opacity: 1; stroke-width: 1px;"/><path class="y2tick ticks crisp" d="M420.4448,0h-5" transform="translate(0,169.2)" style="stroke: rgb(0, 0, 0); stroke-opacity: 1; stroke-width: 1px;"/><path class="y2tick ticks crisp" d="M420.4448,0h-5" transform="translate(0,97)" style="stroke: rgb(0, 0, 0); stroke-opacity: 1; stroke-width: 1px;"/><g class="y2tick"><text text-anchor="end" x="411.6448" y="6.6499999999999995" transform="translate(0,458)" style="font-family: 'Times New Roman', Times, serif; font-size: 19px; fill: rgb(0, 0, 0); fill-opacity: 1; white-space: pre;">0</text></g><g class="y2tick"><text text-anchor="end" x="411.6448" y="6.6499999999999995" style="font-family: 'Times New Roman', Times, serif; font-size: 19px; fill: rgb(0, 0, 0); fill-opacity: 1; white-space: pre;" transform="translate(0,385.8)">2</text></g><g class="y2tick"><text text-anchor="end" x="411.6448" y="6.6499999999999995" style="font-family: 'Times New Roman', Times, serif; font-size: 19px; fill: rgb(0, 0, 0); fill-opacity: 1; white-space: pre;" transform="translate(0,313.6)">4</text></g><g class="y2tick"><text text-anchor="end" x="411.6448" y="6.6499999999999995" style="font-family: 'Times New Roman', Times, serif; font-size: 19px; fill: rgb(0, 0, 0); fill-opacity: 1; white-space: pre;" transform="translate(0,241.4)">6</text></g><g class="y2tick"><text text-anchor="end" x="411.6448" y="6.6499999999999995" style="font-family: 'Times New Roman', Times, serif; font-size: 19px; fill: rgb(0, 0, 0); fill-opacity: 1; white-space: pre;" transform="translate(0,169.2)">8</text></g><g class="y2tick"><text text-anchor="end" x="411.6448" y="6.6499999999999995" style="font-family: 'Times New Roman', Times, serif; font-size: 19px; fill: rgb(0, 0, 0); fill-opacity: 1; white-space: pre;" transform="translate(0,97)">10</text></g></g><g class="overaxes-above"/></g></g><g class="polarlayer"/><g class="smithlayer"/><g class="ternarylayer"/><g class="geolayer"/><g class="funnelarealayer"/><g class="pielayer"/><g class="iciclelayer"/><g class="treemaplayer"/><g class="sunburstlayer"/><g class="glimages"/><defs id="topdefs-a069cd"><g class="clips"/><clipPath id="legenda069cd"><rect width="489" height="66" x="0" y="0"/></clipPath></defs><g class="layer-above"><g class="imagelayer"/><g class="shapelayer"/></g><g class="infolayer"><g class="legend" pointer-events="all" transform="translate(89,5.729999999999976)"><rect class="bg" shape-rendering="crispEdges" style="stroke: rgb(68, 68, 68); stroke-opacity: 1; fill: rgb(255, 255, 255); fill-opacity: 0; stroke-width: 0px;" width="489" height="66" x="0" y="0"/><g class="scrollbox" transform="" clip-path="url(#legenda069cd)"><g class="groups"><g class="traces" transform="translate(0,18.85)" style="opacity: 1;"><text class="legendtext" text-anchor="start" x="40" y="7.409999999999999" style="font-family: 'Times New Roman', Times, serif; font-size: 19px; fill: rgb(0, 0, 0); fill-opacity: 1; white-space: pre;">Title &amp; Abstract Screening</text><g class="layers" style="opacity: 1;"><g class="legendfill"/><g class="legendlines"/><g class="legendsymbols"><g class="legendpoints"><path class="legendundefined" d="M6,6H-6V-6H6Z" transform="translate(20,0)" style="stroke-width: 0.5px; fill: rgb(183, 211, 198); fill-opacity: 1; stroke: rgb(229, 236, 246); stroke-opacity: 1;"/></g></g></g><rect class="legendtoggle" x="0" y="-13.85" width="246.03125" height="27.7" style="fill: rgb(0, 0, 0); fill-opacity: 0;"/></g><g class="traces" transform="translate(248.53125,18.85)" style="opacity: 1;"><text class="legendtext" text-anchor="start" x="40" y="7.409999999999999" style="font-family: 'Times New Roman', Times, serif; font-size: 19px; fill: rgb(0, 0, 0); fill-opacity: 1; white-space: pre;">PDF-to-MD Conversion*</text><g class="layers" style="opacity: 1;"><g class="legendfill"/><g class="legendlines"/><g class="legendsymbols"><g class="legendpoints"><path class="legendundefined" d="M6,6H-6V-6H6Z" transform="translate(20,0)" style="stroke-width: 0.5px; fill: rgb(201, 163, 163); fill-opacity: 1; stroke: rgb(229, 236, 246); stroke-opacity: 1;"/></g></g></g><rect class="legendtoggle" x="0" y="-13.85" width="237.265625" height="27.7" style="fill: rgb(0, 0, 0); fill-opacity: 0;"/></g><g class="traces" transform="translate(0,46.55)" style="opacity: 1;"><text class="legendtext" text-anchor="start" x="40" y="7.409999999999999" style="font-family: 'Times New Roman', Times, serif; font-size: 19px; fill: rgb(0, 0, 0); fill-opacity: 1; white-space: pre;">Full-text Screening</text><g class="layers" style="opacity: 1;"><g class="legendfill"/><g class="legendlines"/><g class="legendsymbols"><g class="legendpoints"><path class="legendundefined" d="M6,6H-6V-6H6Z" transform="translate(20,0)" style="stroke-width: 0.5px; fill: rgb(107, 174, 214); fill-opacity: 1; stroke: rgb(229, 236, 246); stroke-opacity: 1;"/></g></g></g><rect class="legendtoggle" x="0" y="-13.85" width="188.671875" height="27.7" style="fill: rgb(0, 0, 0); fill-opacity: 0;"/></g><g class="traces" transform="translate(248.53125,46.55)" style="opacity: 1;"><text class="legendtext" text-anchor="start" x="40" y="7.409999999999999" style="font-family: 'Times New Roman', Times, serif; font-size: 19px; fill: rgb(0, 0, 0); fill-opacity: 1; white-space: pre;">Data Extraction</text><g class="layers" style="opacity: 1;"><g class="legendfill"/><g class="legendlines"/><g class="legendsymbols"><g class="legendpoints"><path class="legendundefined" d="M6,6H-6V-6H6Z" transform="translate(20,0)" style="stroke-width: 0.5px; fill: rgb(227, 139, 72); fill-opacity: 1; stroke: rgb(229, 236, 246); stroke-opacity: 1;"/></g></g></g><rect class="legendtoggle" x="0" y="-13.85" width="162.265625" height="27.7" style="fill: rgb(0, 0, 0); fill-opacity: 0;"/></g></g></g><rect class="scrollbar" rx="20" ry="3" width="0" height="0" style="fill: rgb(128, 139, 164); fill-opacity: 1;" x="0" y="0"/></g><g class="g-gtitle"/><g class="g-xtitle"/><g class="g-x2title"/><g class="g-ytitle" transform="translate(3.4501953125,0)"><text class="ytitle" transform="rotate(-90,13.550195312500001,277.5)" x="13.550195312500001" y="277.5" text-anchor="middle" style="opacity: 1; font-family: 'Times New Roman', Times, serif; font-size: 19px; fill: rgb(0, 0, 0); fill-opacity: 1; white-space: pre;">Time (hours)</text></g><g class="g-y2title"/></g></svg>